<?xml version="1.0" encoding="utf-8"?>
<!-- Generator: Adobe Illustrator 18.0.0, SVG Export Plug-In . SVG Version: 6.00 Build 0)  -->
<!DOCTYPE svg PUBLIC "-//W3C//DTD SVG 1.1//EN" "http://www.w3.org/Graphics/SVG/1.1/DTD/svg11.dtd">
<svg version="1.1" xmlns="http://www.w3.org/2000/svg" xmlns:xlink="http://www.w3.org/1999/xlink" x="0px" y="0px"
	 viewBox="0 0 50 50" enable-background="new 0 0 50 50" xml:space="preserve">
<g id="phone">
</g>
<g id="lock_2_">
	<g>
		<g>
			<path fill="#999999" d="M25.5,4.86c8.54,0,15.5,6.91,15.5,15.39v9.86c0,1.82-1.5,2.89-3.32,2.89h-3.63h-0.52l-0.46,0.46
				c-2.31,1.29-4.93,2.08-7.57,2.08s-5.26-0.84-7.57-2.13L17.47,33h-0.52h-3.63C11.5,33,10,31.93,10,30.11v-9.86
				C10,11.76,16.96,4.86,25.5,4.86 M25.5,2.86C15.85,2.86,8,10.64,8,20.25v9.86C8,33.04,10.39,35,13.32,35h3.63
				c2.53,2,5.44,2.23,8.55,2.23S31.52,37,34.05,35h3.63c2.93,0,5.32-1.96,5.32-4.89v-9.86C43,10.64,35.15,2.86,25.5,2.86L25.5,2.86z
				"/>
		</g>
		<path fill="#999999" d="M8,23v18.48C8,44.41,10.48,47,13.41,47h24.18c2.93,0,5.41-2.59,5.41-5.52V23H8z"/>
		<path fill="#F2F2F2" d="M26.92,38.2c0.83-1.93,1.7-4.01,1.7-5.01c0-1.72-1.4-3.12-3.12-3.12s-3.12,1.4-3.12,3.12
			c0,1.01,0.83,3.11,1.66,5.05c-0.45,0.4-0.75,0.99-0.75,1.64c0,1.22,0.99,2.21,2.21,2.21s2.21-0.99,2.21-2.21
			C27.71,39.2,27.4,38.6,26.92,38.2z"/>
	</g>
</g>
</svg>
